<svg width="21" height="20" viewBox="0 0 21 20" fill="none" xmlns="http://www.w3.org/2000/svg">
<g id="L" clip-path="url(#clip0_7_92)">
<path id="Shape" fill-rule="evenodd" clip-rule="evenodd" d="M18.5514 19.013H1.52742C0.711415 19.013 0.050415 18.434 0.050415 17.72V2.28199C0.050415 1.56899 0.711415 0.98999 1.52742 0.98999H18.5514C19.3664 0.98999 20.0274 1.56899 20.0274 2.28199V17.72C20.0274 18.434 19.3664 19.013 18.5514 19.013ZM3.51241 16.044H6.45441V7.90699H3.51241V16.044ZM5.00342 3.98499C3.99642 3.98499 3.33942 4.59199 3.33942 5.39099C3.33942 6.17099 3.97742 6.79699 4.96442 6.79699H4.98342C6.00942 6.79699 6.64742 6.17099 6.64742 5.39099C6.62942 4.59199 6.00942 3.98499 5.00342 3.98499ZM17.0624 11.379C17.0624 8.87899 15.6104 7.71599 13.6754 7.71599C12.1134 7.71599 11.4154 8.50499 11.0244 9.05999V7.90699H8.08241C8.12141 8.67099 8.08241 16.044 8.08241 16.044H11.0244V11.5C11.0244 11.258 11.0434 11.014 11.1214 10.841C11.3334 10.355 11.8184 9.85199 12.6304 9.85199C13.6954 9.85199 14.1204 10.598 14.1204 11.692V16.044H17.0624V11.379ZM11.0044 9.08699C11.0104 9.07799 11.0184 9.06899 11.0244 9.05999V9.08699H11.0044Z" fill="white"/>
</g>
<defs>
<clipPath id="clip0_7_92">
<rect width="20.1856" height="20" fill="white" transform="translate(0.0394287)"/>
</clipPath>
</defs>
</svg>
