<svg width="15" height="19" viewBox="0 0 15 19" fill="none" xmlns="http://www.w3.org/2000/svg">
<g id="P" clip-path="url(#clip0_7_99)">
<path id="Shape" fill-rule="evenodd" clip-rule="evenodd" d="M8.02017 0C3.08517 0 0.597168 3.522 0.597168 6.46C0.597168 8.238 1.27317 9.82 2.72417 10.41C2.96217 10.507 3.17517 10.413 3.24417 10.151C3.29217 9.97 3.40617 9.512 3.45617 9.321C3.52617 9.062 3.49917 8.971 3.30717 8.745C2.88817 8.254 2.62117 7.618 2.62117 6.717C2.62117 4.104 4.58517 1.765 7.73517 1.765C10.5242 1.765 12.0562 3.462 12.0562 5.727C12.0562 8.709 10.7312 11.225 8.76317 11.225C7.67717 11.225 6.86417 10.33 7.12417 9.233C7.43717 7.924 8.04117 6.51 8.04117 5.564C8.04117 4.718 7.58517 4.012 6.64017 4.012C5.53017 4.012 4.63817 5.156 4.63817 6.688C4.63817 7.665 4.96917 8.325 4.96917 8.325C4.96917 8.325 3.83217 13.119 3.63317 13.959C3.23617 15.631 3.57417 17.681 3.60217 17.889C3.61917 18.011 3.77717 18.04 3.84917 17.948C3.95117 17.814 5.27417 16.189 5.72417 14.564C5.85117 14.104 6.45417 11.722 6.45417 11.722C6.81517 12.407 7.87017 13.011 8.99117 13.011C12.3302 13.011 14.5952 9.98 14.5952 5.924C14.5952 2.857 11.9862 0 8.02017 0V0Z" fill="white"/>
</g>
<defs>
<clipPath id="clip0_7_99">
<rect width="14.1299" height="19" fill="white" transform="translate(0.596191)"/>
</clipPath>
</defs>
</svg>
