<svg width="23" height="17" viewBox="0 0 23 17" fill="none" xmlns="http://www.w3.org/2000/svg">
<g id="T" clip-path="url(#clip0_7_90)">
<path id="Shape" fill-rule="evenodd" clip-rule="evenodd" d="M21.472 1.89598C20.699 2.21798 19.868 2.43298 18.997 2.53098C19.887 2.03098 20.57 1.23898 20.892 0.296977C20.058 0.758977 19.136 1.09498 18.154 1.27698C17.369 0.490977 16.248 0.000976562 15.009 0.000976562C12.629 0.000976562 10.698 1.80998 10.698 4.03998C10.698 4.35698 10.736 4.66598 10.81 4.96098C7.22799 4.79198 4.05199 3.18398 1.92599 0.740977C1.55499 1.33798 1.34299 2.03098 1.34299 2.77198C1.34299 4.17198 2.10399 5.40998 3.25999 6.13398C2.55399 6.11198 1.88999 5.93098 1.30799 5.62798C1.30799 5.64598 1.30799 5.66098 1.30799 5.67998C1.30799 7.63698 2.79299 9.26898 4.76499 9.63998C4.40399 9.73198 4.02199 9.77998 3.62999 9.77998C3.35199 9.77998 3.08199 9.75598 2.81899 9.70998C3.36699 11.313 4.95899 12.482 6.84499 12.515C5.36999 13.598 3.51199 14.243 1.49199 14.243C1.14399 14.243 0.800989 14.224 0.463989 14.187C2.37099 15.332 4.63699 16.002 7.07099 16.002C14.999 16.002 19.334 9.84598 19.334 4.50898C19.334 4.33298 19.329 4.15998 19.321 3.98598C20.163 3.41598 20.894 2.70498 21.472 1.89598V1.89598Z" fill="white"/>
</g>
<defs>
<clipPath id="clip0_7_90">
<rect width="22.2042" height="17" fill="white" transform="translate(0.463989)"/>
</clipPath>
</defs>
</svg>
